<svg xmlns="http://www.w3.org/2000/svg" width="41.075" height="30.842" viewBox="0 0 41.075 30.842">
  <g id="Group_39622" data-name="Group 39622" transform="translate(-1966.402 -519.167)">
    <g id="Group_39621" data-name="Group 39621" transform="translate(1966.402 519.167)">
      <path id="Path_54985" data-name="Path 54985" d="M2027.092,597.984a3.635,3.635,0,0,1-.009.39.855.855,0,0,1-1.694.1,2.312,2.312,0,0,1-.028-.473q0-3.44,0-6.881v-4.37c0-.044,0-.093,0-.147q0-3.422,0-6.844a1.787,1.787,0,0,1,.069-.552.8.8,0,0,1,.919-.551.822.822,0,0,1,.726.744,3.777,3.777,0,0,1,.011.432q0,3.422,0,6.843v4.821h0Q2027.091,594.74,2027.092,597.984Z" transform="translate(-2020.242 -573.482)" fill="#ababab"/>
      <path id="Path_54986" data-name="Path 54986" d="M2086.186,584.516v6.716h0q0,.766,0,1.531c0,.115,0,.232-.006.346a.834.834,0,0,1-.779.787.861.861,0,0,1-.9-.652,2.087,2.087,0,0,1-.037-.472q0-.7,0-1.407v-6.716h0q0-2.388,0-4.776a4.23,4.23,0,0,1,.034-.647.844.844,0,0,1,1.671.011,3.12,3.12,0,0,1,.02.476q0,2.4,0,4.8Z" transform="translate(-2074.211 -573.353)" fill="#ababab"/>
      <path id="Path_54987" data-name="Path 54987" d="M2125.686,592.7c0,.13.005.26-.006.39a.856.856,0,0,1-.9.859.841.841,0,0,1-.828-.918c0-.583,0-1.166,0-1.749q0-.616,0-1.231v-3.3c-.007-.634,0-1.267,0-1.9,0-.132,0-.263,0-.395q0-2.36,0-4.721a2.792,2.792,0,0,1,.022-.475.826.826,0,0,1,.775-.7.84.84,0,0,1,.883.618,2.027,2.027,0,0,1,.047.514q0,2.584,0,5.166h0v6.716h0Q2125.686,592.136,2125.686,592.7Z" transform="translate(-2110.273 -573.401)" fill="#ababab"/>
      <path id="Path_54988" data-name="Path 54988" d="M2164.918,586.747a.473.473,0,0,0,.005.088v2.232c0,.04,0,.082,0,.124q0,1.689,0,3.378c0,.159.005.319,0,.477a.84.84,0,0,1-.844.861.851.851,0,0,1-.884-.826,4.364,4.364,0,0,1-.01-.477v-7.788q0-2.563.005-5.126a2.069,2.069,0,0,1,.088-.637.812.812,0,0,1,.848-.537.824.824,0,0,1,.775.7,3.242,3.242,0,0,1,.023.518q0,3.335,0,6.671C2164.916,586.516,2164.921,586.632,2164.918,586.747Z" transform="translate(-2146.092 -573.361)" fill="#ababab"/>
      <path id="Path_54989" data-name="Path 54989" d="M2224.265,586.7v4.809q0,3.112,0,6.223a2.668,2.668,0,0,1-.054.6.849.849,0,0,1-1.67-.1,4,4,0,0,1-.018-.519q0-2.819,0-5.64h0v-6.716q0-2.869,0-5.739a3.4,3.4,0,0,1,.015-.432.855.855,0,0,1,.78-.746.826.826,0,0,1,.868.575,2.291,2.291,0,0,1,.075.641q.007,3.357,0,6.713A2.161,2.161,0,0,0,2224.265,586.7Z" transform="translate(-2200.286 -573.298)" fill="#ababab"/>
      <path id="Path_54990" data-name="Path 54990" d="M2263.559,586.533c0,.085,0,.155,0,.214v2.3c0,.052,0,.114,0,.186,0,1.112,0,2.223,0,3.335,0,.174.005.347-.01.519a.832.832,0,0,1-.817.8.851.851,0,0,1-.893-.718,2.464,2.464,0,0,1-.019-.431q0-.594,0-1.186v-5.113q0-3.4.005-6.8a1.9,1.9,0,0,1,.094-.634.8.8,0,0,1,.865-.51.844.844,0,0,1,.758.719,3.665,3.665,0,0,1,.017.518Q2263.559,583.132,2263.559,586.533Z" transform="translate(-2236.175 -573.34)" fill="#ababab"/>
      <path id="Path_54991" data-name="Path 54991" d="M2322.6,590.8c0,.742.01,1.484-.008,2.225a.858.858,0,0,1-1.716.046c-.026-.4-.015-.808-.016-1.213v-.147h0v-6.717q0-2.634,0-5.269c0-.115,0-.231,0-.346a.869.869,0,0,1,.874-.886.84.84,0,0,1,.852.9c.01,1.5.007,3,.006,4.5v.217c0,.58,0,1.16,0,1.74v3.233c.005.563,0,1.126,0,1.689Z" transform="translate(-2290.089 -573.343)" fill="#ababab"/>
      <path id="Path_54992" data-name="Path 54992" d="M2362.191,592.193q0,2.845,0,5.69a1.991,1.991,0,0,1-.087.635.822.822,0,0,1-.846.547.886.886,0,0,1-.781-.7,2.285,2.285,0,0,1-.022-.431q0-3.554,0-7.106v-5.342q0-1.335,0-2.669c0-1.054,0-2.108,0-3.162a2.325,2.325,0,0,1,.033-.474.85.85,0,0,1,1.616-.124,1.839,1.839,0,0,1,.085.592q.008,3.116,0,6.23v.571c0,.1.007.2,0,.3a.538.538,0,0,0,0,.084v2.22c0,.075,0,.172,0,.3Z" transform="translate(-2326.242 -573.368)" fill="#ababab"/>
      <path id="Path_54993" data-name="Path 54993" d="M1966.4,521.737a1.18,1.18,0,0,0,.2-.249,3.463,3.463,0,0,1,3.366-2.253c.807,0,1.614-.006,2.421,0a.838.838,0,0,1,.8.564.79.79,0,0,1-.175.88.918.918,0,0,1-.741.282c-.807-.008-1.614-.016-2.421,0a1.679,1.679,0,0,0-1.646,1.225,2.607,2.607,0,0,0-.075.683c-.008.764.006,1.528,0,2.291a.836.836,0,0,1-.879.908,1.884,1.884,0,0,1-.555-.2,3.138,3.138,0,0,1-.287-.153Z" transform="translate(-1966.402 -519.226)" fill="#ababab"/>
      <path id="Path_54994" data-name="Path 54994" d="M1966.4,795.686a1.247,1.247,0,0,0,.253-.132.871.871,0,0,1,.968-.154.841.841,0,0,1,.5.84c.006.764,0,1.529,0,2.293,0,.115,0,.231.005.346a1.711,1.711,0,0,0,1.762,1.562c.764.01,1.529,0,2.293,0,.676,0,1.066.326,1.059.869s-.408.858-1.073.861c-.779,0-1.558.009-2.337,0a3.451,3.451,0,0,1-3.216-2.219,1.328,1.328,0,0,0-.218-.286Z" transform="translate(-1966.402 -771.345)" fill="#ababab"/>
      <path id="Path_54995" data-name="Path 54995" d="M2367.345,523.661c0,.519,0,1.038,0,1.557a.849.849,0,0,1-.649.791.816.816,0,0,1-.974-.449,1.635,1.635,0,0,1-.108-.587c-.012-.764,0-1.528-.007-2.293a1.68,1.68,0,0,0-1.728-1.767c-.735-.017-1.471,0-2.206-.006a3.449,3.449,0,0,1-.389-.011.854.854,0,0,1-.8-.865.873.873,0,0,1,.815-.857,2.077,2.077,0,0,1,.216,0c.779,0,1.557-.006,2.336,0a3.478,3.478,0,0,1,3.271,2.207,2.593,2.593,0,0,1,.223,1.16C2367.333,522.911,2367.345,523.286,2367.345,523.661Z" transform="translate(-2326.275 -519.167)" fill="#ababab"/>
      <path id="Path_54996" data-name="Path 54996" d="M2367.335,797.682c0,.332-.01.664,0,1a3.471,3.471,0,0,1-3.459,3.495c-.821-.027-1.644.008-2.466-.008a.872.872,0,0,1-.848-1.247.847.847,0,0,1,.844-.492c.707,0,1.414,0,2.12,0,.159,0,.318,0,.476-.011a1.68,1.68,0,0,0,1.59-1.685c.018-.721,0-1.442,0-2.163,0-.144-.005-.289.008-.432a.867.867,0,0,1,.66-.813,1,1,0,0,1,1.015.427.717.717,0,0,1,.052.333C2367.338,796.615,2367.335,797.148,2367.335,797.682Z" transform="translate(-2326.265 -771.331)" fill="#ababab"/>
      <path id="Path_54997" data-name="Path 54997" d="M2125.658,777.183c0,.289.012.578,0,.866a.88.88,0,0,1-.843.875.855.855,0,0,1-.873-.838c-.026-.591-.021-1.184,0-1.775a.856.856,0,0,1,.833-.832.866.866,0,0,1,.876.794c.028.3.005.606.005.909Z" transform="translate(-2110.247 -753.229)" fill="#ababab"/>
      <path id="Path_54998" data-name="Path 54998" d="M2322.518,777.262c0,.273.011.547,0,.82a.873.873,0,0,1-.828.882.883.883,0,0,1-.9-.865c-.024-.575-.028-1.152,0-1.726a.863.863,0,1,1,1.726.025C2322.527,776.686,2322.517,776.974,2322.518,777.262Z" transform="translate(-2290.007 -753.264)" fill="#ababab"/>
      <path id="Path_54999" data-name="Path 54999" d="M2263.483,777.2c0,.287.011.576,0,.862a.872.872,0,0,1-.861.893.884.884,0,0,1-.867-.892q-.026-.84,0-1.682a.877.877,0,0,1,.891-.868.85.85,0,0,1,.835.867c.012.273,0,.546,0,.819Z" transform="translate(-2236.101 -753.263)" fill="#ababab"/>
      <path id="Path_55000" data-name="Path 55000" d="M2164.949,777.286c0,.274.012.549,0,.823a.868.868,0,0,1-.769.852.808.808,0,0,1-.915-.729,12.514,12.514,0,0,1-.021-1.942.831.831,0,0,1,.893-.766.862.862,0,0,1,.812.9C2164.958,776.709,2164.949,777,2164.949,777.286Z" transform="translate(-2146.128 -753.269)" fill="#ababab"/>
      <path id="Path_55001" data-name="Path 55001" d="M2086.231,777.275c0,.3.019.607,0,.908a.858.858,0,0,1-.859.8.828.828,0,0,1-.818-.747,15.826,15.826,0,0,1,0-1.943.818.818,0,0,1,.9-.75.843.843,0,0,1,.791.824c.019.3,0,.605,0,.908Z" transform="translate(-2074.263 -753.285)" fill="#ababab"/>
    </g>
    <path id="Path_55002" data-name="Path 55002" d="M2123.953,650.985v1.9C2123.946,652.252,2123.951,651.619,2123.953,650.985Z" transform="translate(-143.871 -120.375)" fill="#ababab"/>
    <path id="Path_55003" data-name="Path 55003" d="M2123.98,712.176q0-.616,0-1.231v1.231Z" transform="translate(-143.898 -175.129)" fill="#ababab"/>
    <path id="Path_55004" data-name="Path 55004" d="M2340.9,640.922c0,.58,0,1.16,0,1.74v-1.957h0Z" transform="translate(-341.987 -110.987)" fill="#ababab"/>
    <path id="Path_55005" data-name="Path 55005" d="M2340.9,702.174v.027h0v-1.716C2340.905,701.048,2340.9,701.611,2340.9,702.174Z" transform="translate(-341.987 -165.577)" fill="#ababab"/>
    <path id="Path_55006" data-name="Path 55006" d="M2380.5,670.128v-.3C2380.5,669.926,2380.507,670.027,2380.5,670.128Z" transform="translate(-378.15 -137.579)" fill="#ababab"/>
    <rect id="Rectangle_868" data-name="Rectangle 868" width="41.075" height="1.596" rx="0.798" transform="translate(1966.402 533.748)" fill="#090"/>
  </g>
</svg>
