<svg id="Group_38794" data-name="Group 38794" xmlns="http://www.w3.org/2000/svg" width="30.026" height="40.582" viewBox="0 0 30.026 40.582">
  <g id="Group_38792" data-name="Group 38792">
    <path id="Path_9312" data-name="Path 9312" d="M324.207-2270.664c-6.087,0-12.281-4.627-14.494-11.041-2.353-6.816.7-13.7,2.55-15.96.73-.894,1.369-1.27,2.036-1.184.927.121,1.167.955,1.421,1.839a15.729,15.729,0,0,0,1.419,3.518,17.754,17.754,0,0,0,1.7,2.668c.022-.454.02-1.042.018-1.557a25.622,25.622,0,0,1,1.536-10.065c1.528-3.8,4.559-7.554,6.9-8.536a2.51,2.51,0,0,1,1.97-.111c1.285.536,1.274,1.942,1.262,3.57a19.21,19.21,0,0,0,.438,4.852,13.567,13.567,0,0,0,4.07,6.806,12.21,12.21,0,0,1,3.454,5.285c1.074,3.845-.062,9.039-2.9,13.23-2.593,3.835-6.181,6.186-10.1,6.616A11.692,11.692,0,0,1,324.207-2270.664Zm-10.41-25.673c-1.428,1.834-4.251,7.916-2.162,13.969,2.073,6,8.07,10.229,13.63,9.612,3.319-.364,6.387-2.4,8.64-5.733,2.474-3.661,3.528-8.3,2.622-11.543a10.322,10.322,0,0,0-2.966-4.427,15.46,15.46,0,0,1-4.579-7.741,21.189,21.189,0,0,1-.494-5.337,8.691,8.691,0,0,0-.077-1.679c-.979.02-4.344,3.068-6.135,7.528a23.859,23.859,0,0,0-1.389,9.3c.009,2.135.018,3.678-1.346,3.994-1.415.326-2.648-1.333-4.183-4.114A17.419,17.419,0,0,1,313.8-2296.336Zm14.694-12.873Z" transform="translate(-308.858 2311.245)" fill="#2c3e50"/>
  </g>
  <g id="Group_38793" data-name="Group 38793" transform="translate(10.443 28.181)">
    <path id="Path_9313" data-name="Path 9313" d="M328.912-2257.606a4.852,4.852,0,0,1-4.387-3.333,5.425,5.425,0,0,1,.776-4.814,1.073,1.073,0,0,1,.923-.471c.514.067.65.54.724.793.03.106.066.231.121.378a6.381,6.381,0,0,1,.43-1.925,4.96,4.96,0,0,1,2.13-2.589,1.075,1.075,0,0,1,.853-.031h0c.6.251.6.892.593,1.36a5.006,5.006,0,0,0,.111,1.254,3.394,3.394,0,0,0,1.032,1.708,3.77,3.77,0,0,1,1.055,1.635,5.122,5.122,0,0,1-.859,4,4.344,4.344,0,0,1-3.09,2.009A3.894,3.894,0,0,1,328.912-2257.606Zm-2.953-6.594a4.066,4.066,0,0,0-.152,2.817,3.453,3.453,0,0,0,3.37,2.407,3.087,3.087,0,0,0,2.116-1.421,3.85,3.85,0,0,0,.676-2.88,2.54,2.54,0,0,0-.729-1.062,4.7,4.7,0,0,1-1.371-2.333,5.712,5.712,0,0,1-.148-1.3,4.759,4.759,0,0,0-.963,1.5,6.2,6.2,0,0,0-.359,2.434c0,.627.007,1.338-.68,1.5-.764.177-1.263-.733-1.6-1.335Q326.029-2264.047,325.959-2264.2Z" transform="translate(-324.264 2269.671)" fill="#2c3e50"/>
  </g>
</svg>
