<svg xmlns="http://www.w3.org/2000/svg" width="23.384" height="22" viewBox="0 0 23.384 22">
  <g id="Group_38849" data-name="Group 38849" transform="translate(2583.23 4396.312)">
    <path id="Path_9337" data-name="Path 9337" d="M-2569.642-4379.267h5.662a2.626,2.626,0,0,1,.263,0,.6.6,0,0,1,.6.62.593.593,0,0,1-.6.575c-.16.013-.322,0-.483.006-.2.006-.2.02-.111.193a4.777,4.777,0,0,1,.366.786,2.17,2.17,0,0,1-2.074,2.768,2.183,2.183,0,0,1-2.238-2.678,2.057,2.057,0,0,1,.39-.871c.113-.146.08-.2-.108-.2-.644,0-1.288,0-1.932,0-.819,0-1.639,0-2.458,0a1.75,1.75,0,0,0-.284.049,1.488,1.488,0,0,0,.113.233,2.132,2.132,0,0,1,.38,1.364,2.252,2.252,0,0,1-1.907,2.08,2.2,2.2,0,0,1-2.438-1.6,2.138,2.138,0,0,1,.243-1.77c.049-.072.1-.144.147-.218s.016-.137-.077-.141-.2,0-.307,0c-.586-.011-.848-.372-.661-.931.153-.457.326-.906.49-1.358.04-.11.086-.217.122-.328.049-.151.092-.3.137-.455l-.448-.091a.676.676,0,0,1-.573-.478c-.064-.223-.115-.451-.157-.68q-.436-2.366-.865-4.734-.552-3.039-1.1-6.077c-.018-.1-.048-.2-.062-.3a.359.359,0,0,0-.273-.3c-.952-.368-1.9-.749-2.85-1.124a.686.686,0,0,1-.48-.519.7.7,0,0,1,.84-.862,4.157,4.157,0,0,1,.7.246c.91.355,1.813.732,2.732,1.065a1.022,1.022,0,0,1,.7.863q.572,3.123,1.144,6.246.445,2.434.887,4.868c.068.371.072.375.446.375q5.577,0,11.155,0c.39,0,.388-.005.51-.391q.818-2.563,1.637-5.127c.276-.861.555-1.722.83-2.584.09-.282.073-.306-.211-.318-.861-.035-1.723-.065-2.584-.1q-2.234-.089-4.467-.182c-1.327-.056-2.655-.11-3.981-.176-.787-.04-1.574-.082-2.358-.155a.628.628,0,0,1-.6-.677.716.716,0,0,1,.686-.719,7.427,7.427,0,0,1,.834.012c.423.02.844.055,1.267.073q2.122.094,4.245.18c.847.035,1.694.063,2.541.1q2.123.086,4.245.178c.467.021.933.051,1.4.079a.733.733,0,0,1,.719,1.029c-.214.7-.445,1.389-.668,2.084q-.857,2.666-1.714,5.334c-.219.681-.436,1.362-.657,2.042-.208.638-.348.738-1,.738h-10.76c-.358,0-.355,0-.485.355-.162.438-.335.871-.491,1.311-.089.251-.064.28.2.28q1.843,0,3.687,0Zm3.54,1.726a1.022,1.022,0,0,0-1.026,1.025,1.085,1.085,0,0,0,1.059,1.018,1.059,1.059,0,0,0,1.021-1.049A.992.992,0,0,0-2566.1-4377.542Zm-8.286,0a1.03,1.03,0,0,0-1.015,1.035,1.084,1.084,0,0,0,1.018,1.008,1.049,1.049,0,0,0,1.051-1.055A.99.99,0,0,0-2574.389-4377.542Z" transform="translate(0 0)"/>
  </g>
</svg>
