<svg xmlns="http://www.w3.org/2000/svg" width="70.409" height="47.936" viewBox="0 0 70.409 47.936">
  <g id="Group_39616" data-name="Group 39616" transform="translate(-1891.495 4115.748)">
    <path id="Path_54975" data-name="Path 54975" d="M1926.578-4077.425h-26.436c-.341,0-.682-.007-1.023,0-1.219.033-1.243.035-1.252,1.214-.017,2.331,0,4.662-.009,6.993-.007,1.367-.022,1.377-1.416,1.389-1.307.012-2.616-.019-3.922.008-.709.014-1.077-.233-1.02-.985.025-.339,0-.682,0-1.023q0-22,0-44c0-2.148-.177-1.892,1.929-1.909,1.08-.008,2.161-.015,3.241,0,1.159.02,1.171.032,1.186,1.256.015,1.194,0,2.387,0,3.582q0,11,0,22c0,.4.012.8,0,1.194-.011.493.214.731.711.721.341-.007.682.008,1.023.008h22.172c.284,0,.57-.021.853,0,.671.044.886-.29.878-.921-.02-1.705,0-3.411,0-5.117q0-7.248,0-14.5c0-1.791-.281-1.8,1.7-1.8,7.845,0,15.693.119,23.536-.036a12.818,12.818,0,0,1,13.129,12.8c.071,9.153.023,18.306.014,27.459,0,1.213-.038,1.233-1.243,1.256q-1.961.036-3.923,0c-1.155-.02-1.176-.039-1.184-1.275-.016-2.274,0-4.548-.008-6.822-.006-1.478-.016-1.494-1.484-1.5Q1940.308-4077.429,1926.578-4077.425Z" transform="translate(0 0)" fill="#2c3e50"/>
    <path id="Path_54976" data-name="Path 54976" d="M1929.346-4096.866a9.508,9.508,0,0,1,9.582,9.5,9.641,9.641,0,0,1-9.685,9.622,9.533,9.533,0,0,1-9.448-9.632A9.434,9.434,0,0,1,1929.346-4096.866Z" transform="translate(-18.642 -12.437)" fill="#2c3e50"/>
  </g>
</svg>
