<svg xmlns="http://www.w3.org/2000/svg" width="59.486" height="47.936" viewBox="0 0 59.486 47.936">
  <g id="Group_39618" data-name="Group 39618" transform="translate(-703.904 3329.12)">
    <path id="Path_54977" data-name="Path 54977" d="M733.646-3287.114q-13.382,0-26.765.008a2.881,2.881,0,0,1-2.368-.941,2.337,2.337,0,0,1-.6-1.554c0-1.513.017-3.027-.011-4.539a2.626,2.626,0,0,1,2.71-2.654c2.994.041,5.99.019,8.984.01,1.351,0,1.255.206,1.249-1.274,0-.767-.015-.776-.786-.78-1.482-.007-2.963.007-4.445,0-1.39-.011-2.031-.639-2.037-2.025q-.02-4.256,0-8.512a1.789,1.789,0,0,1,2.033-2.04c5.611-.012,11.223,0,16.834-.008a1.878,1.878,0,0,1,2.049,2.047c-.039,2.837,0,5.675-.014,8.512-.007,1.389-.648,2.014-2.035,2.025-1.513.012-3.026,0-4.54.006-.674,0-.694.019-.693.678,0,1.584-.17,1.362,1.338,1.374,1.45.012,2.909-.095,4.348.028a3.826,3.826,0,0,0,3.8-3.681c.026-.535,0-1.072.011-1.607.018-.831.154-.971,1.009-.993.63-.016,1.261,0,1.891,0,2.333,0,4.668.07,7-.015a5.925,5.925,0,0,1,6.166,5.617c.025.617.066.646.761.65,2.081.011,4.161.005,6.242.005,1.639,0,3.279.01,4.918-.006a2.6,2.6,0,0,1,2.091.911,2.179,2.179,0,0,1,.584,1.459c0,1.639.045,3.279-.009,4.917a2.493,2.493,0,0,1-2.385,2.374c-.345.027-.693.011-1.04.011Z" transform="translate(0 -14.346)" fill="#2c3e50"/>
    <path id="Path_54978" data-name="Path 54978" d="M750.04-3171.394h9.826c.221,0,.441.006.661,0,.309-.006.47.131.462.45,0,.126,0,.252,0,.378,0,4.252-.02,8.5,0,12.755a4.479,4.479,0,0,1-3.376,4.359,4.884,4.884,0,0,1-1.119.135c-4.315.01-8.63-.027-12.944.02a4.6,4.6,0,0,1-4.588-4.62c.062-4.188.016-8.377.019-12.566,0-.907.006-.911.94-.912Q744.985-3171.4,750.04-3171.394Z" transform="translate(-28.433 -127.889)" fill="#2c3e50"/>
    <path id="Path_54979" data-name="Path 54979" d="M941.061-3162.587q0-4.018,0-8.037c0-.765.013-.774.793-.777q2.458-.01,4.917,0c.892,0,.9.008.9.965q0,6.9,0,13.805c0,.662.008,1.324,0,1.986-.015,1.008-.3,1.317-1.282,1.328-1.324.015-2.648.01-3.971,0-1.121-.008-1.351-.249-1.353-1.42Q941.055-3158.662,941.061-3162.587Z" transform="translate(-192.294 -127.881)" fill="#2c3e50"/>
    <path id="Path_54980" data-name="Path 54980" d="M869.968-3324.345a4.814,4.814,0,0,1-4.819,4.9,4.882,4.882,0,0,1-4.85-4.8,4.81,4.81,0,0,1,4.848-4.872A4.745,4.745,0,0,1,869.968-3324.345Z" transform="translate(-126.81)" fill="#2c3e50"/>
  </g>
</svg>
