<svg id="Group_39612" data-name="Group 39612" xmlns="http://www.w3.org/2000/svg" width="42.421" height="47.935" viewBox="0 0 42.421 47.935">
  <path id="Path_54967" data-name="Path 54967" d="M1302-2448.7h13.305a2.765,2.765,0,0,1,2.59,1.979.759.759,0,0,0,.765.645,8.306,8.306,0,0,1,3.338,1.228,5.762,5.762,0,0,1,2.476,5.866,8.387,8.387,0,0,1-2.294,4.665,14.876,14.876,0,0,1-1.234,1.133,4.911,4.911,0,0,1-3.151,1.146c-.985.035-1.968.138-2.953.174-.352.013-.476.271-.644.515q-1.38,2-2.767,4c-.051.074-.106.146-.161.216-1.405,1.779-1.405,1.779-3.529,1.779-3.983,0-7.966-.013-11.949.013a2.273,2.273,0,0,1-1.558-.573,20.817,20.817,0,0,1-5.856-8.3,26.458,26.458,0,0,1-1.891-7.387c-.133-1.352-.255-2.706-.326-4.063a3.889,3.889,0,0,1,.21-1.358,2.014,2.014,0,0,1,2.238-1.684Q1295.309-2448.7,1302-2448.7Zm-10.21,3.069c-.479,0-.96.018-1.438-.006-.4-.019-.583.146-.554.59.048.741.11,1.481.135,2.223a25.348,25.348,0,0,0,1.386,7.321,15.567,15.567,0,0,0,4.386,6.927c.228.2.466.587.792.281s0-.627-.12-.915c-.54-1.293-1.149-2.554-1.634-3.871a24.444,24.444,0,0,1-1.651-8.279,16.125,16.125,0,0,1,.4-3.671c.129-.581.128-.586-.435-.6C1292.64-2445.641,1292.217-2445.634,1291.794-2445.633Zm25.149,11.107,0,.041a4.256,4.256,0,0,0,.915-.14,6.241,6.241,0,0,0,3.7-3.684,3.044,3.044,0,0,0-.367-3.054,11.734,11.734,0,0,0-1.589-1.654,1.811,1.811,0,0,0-.921-.4c-.486-.072-.711.177-.776.714-.112.918-.2,1.84-.337,2.753a15.476,15.476,0,0,1-1.369,4.649c-.35.694-.338.716.4.771C1316.717-2434.519,1316.83-2434.526,1316.943-2434.526Z" transform="translate(-1282.125 2468.791)" fill="#2c3e50"/>
  <path id="Path_54968" data-name="Path 54968" d="M1281.734-2314.371q-8.136,0-16.273,0a3.079,3.079,0,0,1-3.066-2.746c-.1-.57-.044-.662.469-.693.2-.011.4,0,.593,0h36.785c1-.013,1.064-.056.736,1.175a2.921,2.921,0,0,1-2.884,2.266Q1289.913-2314.364,1281.734-2314.371Z" transform="translate(-1262.352 2362.305)" fill="#2c3e50"/>
  <path id="Path_54969" data-name="Path 54969" d="M1357.762-2537.068c-.017-.1-.058-.191-.033-.235.089-.157.21-.291.3-.446a8.525,8.525,0,0,0,1.414-4.675,4,4,0,0,0-.99-2.675c-.493-.552-1.044-1.042-1.54-1.592a10.932,10.932,0,0,1-1.051-1.331c-2.065-3.16-.27-7.886,3.2-8.443a.7.7,0,0,1,.238.049,1.11,1.11,0,0,1-.121.211c-1.491,1.619-1.237,4.833.036,6.615.539.755,1.131,1.463,1.714,2.179,1.956,2.4,1.374,5.522.1,7.563a7.343,7.343,0,0,1-2.914,2.615C1358.01-2537.18,1357.907-2537.136,1357.762-2537.068Z" transform="translate(-1339.282 2556.466)" fill="#2c3e50"/>
  <path id="Path_54970" data-name="Path 54970" d="M1324.4-2536.633c-.23.693-.41,1.414-.7,2.074a2.67,2.67,0,0,0,.438,2.908c.633.831,1.323,1.617,1.893,2.5a9.01,9.01,0,0,1,.938,2.054,3.637,3.637,0,0,1-.3,2.864,7.715,7.715,0,0,1-2.7,2.881.557.557,0,0,1-.216.04.8.8,0,0,1,.039-.247c.3-.559.633-1.1.909-1.672a3.284,3.284,0,0,0-.192-3.417c-.584-.865-1.3-1.623-1.962-2.423-.246-.3-.536-.556-.759-.871a3.262,3.262,0,0,1-.371-3.392,7.216,7.216,0,0,1,2.924-3.357Z" transform="translate(-1311.146 2540.38)" fill="#2c3e50"/>
  <path id="Path_54971" data-name="Path 54971" d="M1399.541-2532.284c-.011-.075-.042-.147-.024-.2a1.586,1.586,0,0,1,.139-.229c.255-.445.519-.885.759-1.34a3.465,3.465,0,0,0-.151-3.749,22.071,22.071,0,0,0-1.494-1.887c-.3-.365-.657-.681-.964-1.043a3.388,3.388,0,0,1-.5-3.853,8.7,8.7,0,0,1,2.628-3.094.7.7,0,0,1,.224-.08.939.939,0,0,1,.014.331c-.235.661-.463,1.327-.735,1.971a2.37,2.37,0,0,0,.288,2.433c.591.827,1.264,1.585,1.837,2.426a12.06,12.06,0,0,1,1.081,1.978,3.86,3.86,0,0,1-.236,3.459,7.635,7.635,0,0,1-2.666,2.788A1.518,1.518,0,0,1,1399.541-2532.284Z" transform="translate(-1374.111 2549.38)" fill="#2c3e50"/>
  <path id="Path_54972" data-name="Path 54972" d="M1340.207-2536.976l.114-.064-.058.126Z" transform="translate(-1327.007 2540.661)" fill="#2c3e50"/>
</svg>
