<svg xmlns="http://www.w3.org/2000/svg" width="67.95" height="47.936" viewBox="0 0 67.95 47.936">
  <g id="Group_39614" data-name="Group 39614" transform="translate(-1683.485 4340.649)">
    <path id="Path_54973" data-name="Path 54973" d="M1723.742-4300.4c.566-8.207,2.108-20.8,15.966-30.033-.789.3-1.59.582-2.366.916a27.305,27.305,0,0,0-15.889,17.75,48.775,48.775,0,0,0-1.981,10.923c-.009.11-.037.219-.074.432-1.607,0-3.215.012-4.822-.025-.12,0-.323-.351-.334-.547a30.711,30.711,0,0,1,1.117-10.26,29.6,29.6,0,0,1,9.478-14.706,28.005,28.005,0,0,1,14.134-6.376c.184-.028.364-.088.563-.137-1.839-3.035-1.7-5.362.4-7.1a4.75,4.75,0,0,1,6.166.1c1.981,1.722,2.084,4.135.269,6.981,1.33.292,2.657.529,3.955.878a27.643,27.643,0,0,1,12.32,7.064,29.222,29.222,0,0,1,8.594,16.429,54.843,54.843,0,0,1,.447,6.6c.048,1.116-.016,1.121-1.1,1.121l-41.509-.011Z" transform="translate(-25.483)" fill="#2c3e50"/>
    <path id="Path_54974" data-name="Path 54974" d="M1683.485-4087.579v-5.882h67.95v5.882Z" transform="translate(0 -205.135)" fill="#2c3e50"/>
  </g>
</svg>
