<svg xmlns="http://www.w3.org/2000/svg" width="17.112" height="17.111" viewBox="0 0 17.112 17.111">
  <g id="Group_39488" data-name="Group 39488" transform="translate(-370.36 -218.025)">
    <path id="Icon_ionic-ios-call" data-name="Icon ionic-ios-call" d="M20.187,17.158a13.576,13.576,0,0,0-2.836-1.9c-.85-.408-1.161-.4-1.763.034-.5.362-.825.7-1.4.572a8.359,8.359,0,0,1-2.815-2.083,8.3,8.3,0,0,1-2.083-2.815c-.122-.581.215-.9.572-1.4.433-.6.446-.913.034-1.763A13.308,13.308,0,0,0,8,4.968c-.619-.619-.757-.484-1.1-.362a6.249,6.249,0,0,0-1.006.534A3.034,3.034,0,0,0,4.685,6.416c-.24.518-.518,1.481.9,4A22.305,22.305,0,0,0,9.5,15.643h0l0,0,0,0h0a22.392,22.392,0,0,0,5.23,3.922c2.516,1.414,3.48,1.136,4,.9a2.982,2.982,0,0,0,1.275-1.208,6.249,6.249,0,0,0,.534-1.006C20.671,17.915,20.81,17.777,20.187,17.158Z" transform="translate(366.346 213.994)" fill="none" stroke="#707070" stroke-width="1"/>
  </g>
</svg>
