<svg id="Group_38795" data-name="Group 38795" xmlns="http://www.w3.org/2000/svg" width="36.938" height="35.593" viewBox="0 0 36.938 35.593">
  <path id="Path_9314" data-name="Path 9314" d="M292.593-2326.58a15.733,15.733,0,0,1-3.486,9.673,59.959,59.959,0,0,1-7,7.645c-2.234,2.147-4.533,4.212-6.8,6.313-.215.2-.451.371-.652.583-.365.385-.681.313-1.042-.025-1.007-.943-2.058-1.832-3.046-2.8-3.118-3.045-6.257-6.068-9.306-9.2a20.58,20.58,0,0,1-4.09-5.87c-1.957-4.34-2.2-8.691.371-12.854a9.3,9.3,0,0,1,13.734-2.618,16.575,16.575,0,0,1,1.832,1.709c1.053,1.1,1.017,1.094,2.128-.04a16.108,16.108,0,0,1,2.147-1.907c5.592-3.967,13.628-.931,15.079,7.271A18.667,18.667,0,0,1,292.593-2326.58Zm-2.354-.036a8.711,8.711,0,0,0-.009-1.062,9.787,9.787,0,0,0-.273-1.427c-1.1-3.97-3.887-5.959-7.346-5.994a7.467,7.467,0,0,0-5.507,2.551c-.666.7-1.254,1.484-1.88,2.229-1.2,1.434-.9,1.569-2.127.019a24.573,24.573,0,0,0-1.887-2.221,7.6,7.6,0,0,0-6.923-2.436c-3.734.64-6.541,4.378-6.234,8.977a11.688,11.688,0,0,0,2.019,6.017,38.642,38.642,0,0,0,3.933,4.987c3.122,3.164,6.4,6.141,9.589,9.219.414.4.656.427,1.087.013,3.1-2.987,6.3-5.859,9.332-8.94a40.488,40.488,0,0,0,4.26-5.372A11.447,11.447,0,0,0,290.24-2326.616Z" transform="translate(-255.656 2337.699)" fill="#2c3e50"/>
</svg>
