<svg xmlns="http://www.w3.org/2000/svg" xmlns:xlink="http://www.w3.org/1999/xlink" width="30.639" height="26.782" viewBox="0 0 30.639 26.782">
  <defs>
    <linearGradient id="linear-gradient" x1="-0.037" x2="1.261" gradientUnits="objectBoundingBox">
      <stop offset="0" stop-color="#2c3e50"/>
      <stop offset="1" stop-color="#2c3e50"/>
    </linearGradient>
    <linearGradient id="linear-gradient-2" x1="-0.037" x2="1.261" gradientUnits="objectBoundingBox">
      <stop offset="0" stop-color="#2c3e50"/>
      <stop offset="0" stop-color="#2c3e50"/>
      <stop offset="0.799" stop-color="#2c3e50"/>
      <stop offset="1" stop-color="#2c3e50"/>
    </linearGradient>
  </defs>
  <g id="Group_38847" data-name="Group 38847" transform="translate(-1352.906 5589.734)">
    <path id="Path_9333" data-name="Path 9333" d="M1368.218-5562.96c-3.91,0-7.82-.008-11.73.009a.9.9,0,0,1-.981-.975c.013-4.246.006-8.489.011-12.735a.33.33,0,0,0-.207-.342,4.326,4.326,0,0,1-2.4-3.816,1.173,1.173,0,0,1,.147-.6c1.474-2.616,2.961-5.225,4.441-7.838a.876.876,0,0,1,.833-.48q9.89,0,19.78,0a.88.88,0,0,1,.832.484q2.227,3.926,4.466,7.846a1.376,1.376,0,0,1,.116.9,4.377,4.377,0,0,1-2.387,3.508.346.346,0,0,0-.22.355q.008,6.387.005,12.773a.872.872,0,0,1-.289.721.909.909,0,0,1-.624.19q-4.773,0-9.546,0Zm-7.258-15.409a4.49,4.49,0,0,1-3.821,1.872v11.92h2.528v-.258q0-3.867,0-7.734a2.6,2.6,0,0,1,2.646-2.643q1.063,0,2.125,0a2.632,2.632,0,0,1,.412.026,2.608,2.608,0,0,1,2.231,2.619q0,3.857,0,7.715v.265h12.205V-5576.5a4.494,4.494,0,0,1-3.813-1.877,4.381,4.381,0,0,1-3.629,1.866,4.38,4.38,0,0,1-3.617-1.859A4.481,4.481,0,0,1,1360.959-5578.369Zm20.237-3.618c-.027-.058-.039-.087-.055-.115q-1.671-2.94-3.339-5.882a.243.243,0,0,0-.252-.131q-9.326,0-18.652,0a.274.274,0,0,0-.278.155q-1.648,2.919-3.305,5.834a1.221,1.221,0,0,0-.058.141Zm-19.91,17.4h4.18c0-.062.009-.114.009-.165q0-3.905,0-7.81a.991.991,0,0,0-1.039-1.039c-.669,0-1.339.023-2.006-.008a1.077,1.077,0,0,0-1.151,1.142c.02,2.537.008,5.075.008,7.613Zm15.089-15.774a2.763,2.763,0,0,0,2.584,2.239,2.778,2.778,0,0,0,2.894-2.239Zm-16.293,0h-5.49a2.769,2.769,0,0,0,2.721,2.238A2.767,2.767,0,0,0,1360.081-5580.36Zm7.262,0h-5.489a2.788,2.788,0,0,0,2.594,2.24A2.812,2.812,0,0,0,1367.344-5580.363Zm1.758,0a2.812,2.812,0,0,0,2.979,2.234c1.271-.128,2.528-1.249,2.5-2.234Z" transform="translate(0 0)" fill="url(#linear-gradient)"/>
    <path id="Path_9334" data-name="Path 9334" d="M1750.183-5220.829h2.026a2.106,2.106,0,0,1,2.16,2.166q0,1.544,0,3.088a2.108,2.108,0,0,1-2.15,2.157q-2.035,0-4.072,0a2.106,2.106,0,0,1-2.16-2.166q0-1.544,0-3.088a2.107,2.107,0,0,1,2.15-2.156Zm-.008,5.8h2.006a.512.512,0,0,0,.574-.567q0-1.523,0-3.048a.507.507,0,0,0-.57-.569q-2.006,0-4.012,0a.511.511,0,0,0-.575.584q0,1.5,0,3.009a.519.519,0,0,0,.589.592Z" transform="translate(-377.607 -354.383)" fill="url(#linear-gradient-2)"/>
  </g>
</svg>
