<svg xmlns="http://www.w3.org/2000/svg" width="20.973" height="20.218" viewBox="0 0 20.973 20.218">
  <g id="Group_39108" data-name="Group 39108" transform="translate(-826.201 1259.6)">
    <path id="Path_10048" data-name="Path 10048" d="M828.481-1046.3q1.035,0,2.07,0c.232,0,.236,0,.242.238a19.821,19.821,0,0,0,.344,3.156c.039.209.037.21-.179.271a15.286,15.286,0,0,0-3.006,1.159c-.207.109-.19.1-.3-.094a10.381,10.381,0,0,1-1.4-4.048c-.017-.142-.037-.284-.046-.426-.016-.252-.013-.254.23-.254.412,0,.824,0,1.237,0Z" transform="translate(0 -202.533)" fill="#2c3e50"/>
    <path id="Path_10049" data-name="Path 10049" d="M1148.415-1045.984a9.785,9.785,0,0,1-.834,3.282c-.185.4-.406.792-.619,1.182-.087.16-.1.159-.248.079a14.665,14.665,0,0,0-3.027-1.169c-.238-.068-.238-.069-.194-.3a19.6,19.6,0,0,0,.335-3.054c.011-.354.015-.3.305-.305h3.985c.042,0,.084,0,.126,0,.178.007.178.008.175.187C1148.419-1046.051,1148.417-1046.018,1148.415-1045.984Z" transform="translate(-301.251 -202.556)" fill="#2c3e50"/>
    <path id="Path_10050" data-name="Path 10050" d="M828.476-1164.359q-1.021,0-2.042,0c-.218,0-.225,0-.209-.226a9.366,9.366,0,0,1,.7-2.98c.221-.525.493-1.029.752-1.538.087-.171.1-.169.271-.08a14.11,14.11,0,0,0,2.98,1.145c.032.009.065.016.1.026.163.052.164.055.138.234-.089.606-.189,1.212-.26,1.82-.052.442-.065.888-.092,1.332-.016.264-.013.265-.267.266h-2.067Z" transform="translate(-0.017 -85.795)" fill="#2c3e50"/>
    <path id="Path_10051" data-name="Path 10051" d="M1146.1-1164.38h-2.042c-.251,0-.255,0-.261-.245a20.564,20.564,0,0,0-.346-3.178c-.034-.181-.03-.18.159-.238.441-.135.884-.267,1.323-.409a10.945,10.945,0,0,0,1.729-.758c.167-.088.171-.087.268.076a10.355,10.355,0,0,1,1.407,4.065c.02.167.04.334.05.5s.007.185-.169.186c-.412,0-.823,0-1.235,0h-.882Z" transform="translate(-301.22 -85.772)" fill="#2c3e50"/>
    <path id="Path_10052" data-name="Path 10052" d="M944.949-1046.3h1.741c.241,0,.245,0,.245.23q0,1.249-.008,2.5c0,.216,0,.216-.222.227a27.2,27.2,0,0,0-3.11.318c-.234.039-.237.038-.279-.186a18.135,18.135,0,0,1-.315-2.9c-.005-.173,0-.178.182-.179.589,0,1.178,0,1.766,0Z" transform="translate(-110.902 -202.535)" fill="#2c3e50"/>
    <path id="Path_10053" data-name="Path 10053" d="M944.875-1134.363h-1.742c-.232,0-.231,0-.223-.217a20.336,20.336,0,0,1,.319-2.881c.038-.206.038-.209.237-.178a25.752,25.752,0,0,0,3.213.317c.138,0,.172.062.17.183,0,.286,0,.572,0,.858,0,.572,0,1.144-.005,1.716,0,.193-.007.2-.2.2-.589,0-1.178,0-1.767,0Z" transform="translate(-110.815 -115.789)" fill="#2c3e50"/>
    <path id="Path_10054" data-name="Path 10054" d="M1048.918-1134.388h-1.589c-.084,0-.168-.005-.252-.007s-.1-.042-.106-.111c0-.042,0-.084,0-.126q0-1.236,0-2.472c0-.234,0-.233.23-.245a26.856,26.856,0,0,0,3.109-.318c.225-.038.224-.035.269.194a18.42,18.42,0,0,1,.318,2.879c.007.192.007.2-.19.2-.6,0-1.194,0-1.791,0Z" transform="translate(-209.622 -115.76)" fill="#2c3e50"/>
    <path id="Path_10055" data-name="Path 10055" d="M1048.945-1046.3h1.74c.233,0,.233,0,.223.217a20.675,20.675,0,0,1-.322,2.879c-.04.209-.039.213-.238.181a26.894,26.894,0,0,0-3.184-.322c-.181-.007-.186-.011-.187-.185,0-.866,0-1.732,0-2.6,0-.134.052-.172.178-.171.6,0,1.194,0,1.791,0Z" transform="translate(-209.628 -202.534)" fill="#2c3e50"/>
    <path id="Path_10056" data-name="Path 10056" d="M959.687-959.348q0,1.148,0,2.3c0,.059,0,.118,0,.177,0,.1-.056.12-.133.075a6.628,6.628,0,0,1-.729-.443A5.341,5.341,0,0,1,957.444-959a11.836,11.836,0,0,1-.978-2.454c-.052-.185-.05-.185.146-.221a20.351,20.351,0,0,1,2.832-.291.623.623,0,0,0,.076,0c.136-.022.177.043.176.17,0,.378,0,.757,0,1.135v1.311Z" transform="translate(-123.661 -282.605)" fill="#2c3e50"/>
    <path id="Path_10057" data-name="Path 10057" d="M959.643-1256.744v2.343c0,.017,0,.034,0,.05-.007.2-.008.2-.2.195-.319-.013-.639-.022-.955-.057-.651-.072-1.3-.158-1.949-.242-.162-.021-.174-.037-.128-.192a10.384,10.384,0,0,1,1.7-3.545,3.8,3.8,0,0,1,1.148-1.007,1.561,1.561,0,0,1,.276-.122c.027-.008.088.029.1.059a.374.374,0,0,1,.012.149q0,1.184,0,2.369Z" transform="translate(-123.618 -0.264)" fill="#2c3e50"/>
    <path id="Path_10058" data-name="Path 10058" d="M1046.958-1257.026v-2.194q0-.076,0-.151c0-.268.014-.274.266-.153a3.421,3.421,0,0,1,1.035.792,6.96,6.96,0,0,1,1.165,1.789,12.587,12.587,0,0,1,.744,1.979c.061.219.06.218-.153.258a20.14,20.14,0,0,1-2.78.289h-.025c-.254.005-.254.005-.255-.238q0-.416,0-.832,0-.769,0-1.538Z" transform="translate(-209.608)" fill="#2c3e50"/>
    <path id="Path_10059" data-name="Path 10059" d="M1046.969-959.239v-2.3c0-.034,0-.067,0-.1.007-.184.007-.186.182-.187a3.153,3.153,0,0,1,.353.01c.835.091,1.671.186,2.506.28.025,0,.05.008.075.01.127.008.154.074.116.188-.09.271-.165.548-.266.815a10.792,10.792,0,0,1-.984,2.1,5.028,5.028,0,0,1-1.3,1.457,5.238,5.238,0,0,1-.548.308c-.081.043-.128.01-.13-.082,0-.05,0-.1,0-.151q0-1.174,0-2.347Z" transform="translate(-209.62 -282.742)" fill="#2c3e50"/>
    <path id="Path_10060" data-name="Path 10060" d="M1093.733-1258.8c.177.061.353.119.527.182a10.442,10.442,0,0,1,4.367,3.03c.168.195.17.2-.055.313a15.194,15.194,0,0,1-2.521.952c-.17.049-.175.043-.228-.127a15.863,15.863,0,0,0-.726-2.015,9.379,9.379,0,0,0-1.349-2.182.919.919,0,0,1-.063-.079c-.009-.013-.018-.041-.013-.045A.256.256,0,0,1,1093.733-1258.8Z" transform="translate(-253.965 -0.761)" fill="#2c3e50"/>
    <path id="Path_10061" data-name="Path 10061" d="M876.189-949.027c.111-.009.115.077.138.147.143.43.275.864.432,1.289a9.641,9.641,0,0,0,1.609,2.865c.027.032.057.063.081.1a.32.32,0,0,1,.028.068c-.03,0-.063.02-.089.012-.168-.052-.336-.106-.5-.167a10.443,10.443,0,0,1-4.362-3.028c-.2-.226-.164-.2.052-.307a14.679,14.679,0,0,1,2.517-.953C876.126-949.013,876.159-949.02,876.189-949.027Z" transform="translate(-44.811 -294.892)" fill="#2c3e50"/>
    <path id="Path_10062" data-name="Path 10062" d="M1093.859-944.621c-.019,0-.048-.007-.048-.012a.113.113,0,0,1,.01-.066,1.018,1.018,0,0,1,.079-.1,9.92,9.92,0,0,0,1.722-3.144c.122-.349.227-.7.336-1.056.029-.093.059-.144.175-.111a14.55,14.55,0,0,1,2.634,1c.155.078.156.087.048.213a10.561,10.561,0,0,1-4.887,3.253C1093.9-944.631,1093.88-944.626,1093.859-944.621Z" transform="translate(-254.097 -294.807)" fill="#2c3e50"/>
    <path id="Path_10063" data-name="Path 10063" d="M878.443-1258.644a.2.2,0,0,1,.054.03c.006.006,0,.032-.011.045a.94.94,0,0,1-.063.079,9.774,9.774,0,0,0-1.731,3.14q-.183.523-.339,1.055c-.036.123-.079.162-.211.124a14.928,14.928,0,0,1-2.588-.984c-.174-.087-.173-.093-.043-.246a10.343,10.343,0,0,1,3.472-2.671c.4-.191.823-.338,1.236-.5C878.29-1258.6,878.364-1258.62,878.443-1258.644Z" transform="translate(-44.833 -0.908)" fill="#2c3e50"/>
  </g>
</svg>
