<svg xmlns="http://www.w3.org/2000/svg" width="20.655" height="21.954" viewBox="0 0 20.655 21.954">
  <g id="Icon_open-account-login" data-name="Icon open-account-login" fill="#fff">
    <path d="M7.875.52V3.508h9.807V18.447H7.875v2.988H20.135V.52ZM10.327,6.5V9.483H.52v2.988h9.807v2.988l4.9-4.482Z" stroke="none"/>
    <path d="M 20.65461158752441 21.95419502258301 L 20.13480186462402 21.95419502258301 L 7.875431060791016 21.95419502258301 L 7.355620384216309 21.95419502258301 L 7.355620384216309 21.43438529968262 L 7.355620384216309 18.44658660888672 L 7.355620384216309 17.9267749786377 L 7.875431060791016 17.9267749786377 L 17.16311645507813 17.9267749786377 L 17.16311645507813 4.02741527557373 L 7.875431060791016 4.02741527557373 L 7.355620384216309 4.02741527557373 L 7.355620384216309 3.507604598999023 L 7.355620384216309 0.5198057889938354 L 7.355620384216309 -4.771401563630207e-06 L 7.875431060791016 -4.771401563630207e-06 L 20.13480186462402 -4.771401563630207e-06 L 20.65461158752441 -4.771401563630207e-06 L 20.65461158752441 0.5198057889938354 L 20.65461158752441 21.43438529968262 L 20.65461158752441 21.95419502258301 Z M 8.395241737365723 20.91457366943359 L 19.614990234375 20.91457366943359 L 19.614990234375 1.039616346359253 L 8.395241737365723 1.039616346359253 L 8.395241737365723 2.987793922424316 L 17.68292617797852 2.987793922424316 L 18.20273780822754 2.987793922424316 L 18.20273780822754 3.507604598999023 L 18.20273780822754 18.44658660888672 L 18.20273780822754 18.96639633178711 L 17.68292617797852 18.96639633178711 L 8.395241737365723 18.96639633178711 L 8.395241737365723 20.91457366943359 Z M 9.807494163513184 16.6380615234375 L 9.807494163513184 15.45878887176514 L 9.807494163513184 12.99080085754395 L 0.5198092460632324 12.99080085754395 L -1.363257638331561e-06 12.99080085754395 L -1.363257638331561e-06 12.47099018096924 L -1.363257638331561e-06 9.48320198059082 L -1.363257638331561e-06 8.963391304016113 L 0.5198092460632324 8.963391304016113 L 9.807494163513184 8.963391304016113 L 9.807494163513184 6.495402812957764 L 9.807494163513184 5.316129684448242 L 10.67797946929932 6.111700057983398 L 15.58172702789307 10.59339332580566 L 16.00156784057617 10.97709560394287 L 15.58172702789307 11.36079883575439 L 10.67797946929932 15.84249210357666 L 9.807494163513184 16.6380615234375 Z M 1.039619922637939 11.95117950439453 L 10.32730484008789 11.95117950439453 L 10.8471155166626 11.95117950439453 L 10.8471155166626 12.47099018096924 L 10.8471155166626 14.27952003479004 L 14.46054077148438 10.97709560394287 L 10.8471155166626 7.674670696258545 L 10.8471155166626 9.48320198059082 L 10.8471155166626 10.00301170349121 L 10.32730484008789 10.00301170349121 L 1.039619922637939 10.00301170349121 L 1.039619922637939 11.95117950439453 Z" stroke="none" fill="#707070"/>
  </g>
</svg>
