<svg id="Group_38791" data-name="Group 38791" xmlns="http://www.w3.org/2000/svg" width="40.581" height="40.582" viewBox="0 0 40.581 40.582">
  <path id="Path_9308" data-name="Path 9308" d="M94.423-2250.293c.251.067.689.167,1.115.3.569.183,1.141.367,1.69.6a1.77,1.77,0,0,0,2.359-.623,15.112,15.112,0,0,1,1.545-1.777,2.431,2.431,0,0,1,3.84.015c.508.493.943,1.062,1.4,1.6.962,1.129,1.228,1.206,2.61.738.707-.24,1.4-.518,2.125-.711a2.348,2.348,0,0,1,3.207,1.747,15.692,15.692,0,0,1,.518,2.521,1.678,1.678,0,0,0,1.639,1.645,16.876,16.876,0,0,1,2.31.445,2.451,2.451,0,0,1,1.947,3.389c-.22.791-.514,1.562-.8,2.333a1.639,1.639,0,0,0,.581,2.079,18.647,18.647,0,0,1,1.707,1.458c1.473,1.438,1.483,2.729.027,4.161a23.424,23.424,0,0,1-1.868,1.614,1.523,1.523,0,0,0-.5,1.809c.142.464.332.914.486,1.375s.32.919.431,1.391a2.249,2.249,0,0,1-1.561,2.926,14.607,14.607,0,0,1-2.727.614,1.677,1.677,0,0,0-1.669,1.614,17.667,17.667,0,0,1-.4,2.09c-.495,2.089-1.687,2.764-3.74,2.121-.678-.212-1.345-.459-2.008-.715a1.647,1.647,0,0,0-2.087.554A20.666,20.666,0,0,1,105-2213.11a2.456,2.456,0,0,1-3.921-.014c-.478-.471-.892-1.008-1.326-1.523-.991-1.177-1.265-1.255-2.7-.765-.742.253-1.477.539-2.236.73a2.226,2.226,0,0,1-2.937-1.529,13.705,13.705,0,0,1-.61-2.725,1.724,1.724,0,0,0-1.714-1.709,15.367,15.367,0,0,1-2.2-.417,2.482,2.482,0,0,1-1.986-3.465c.182-.646.441-1.271.661-1.906.5-1.435.416-1.708-.76-2.7a20.759,20.759,0,0,1-1.6-1.409,2.4,2.4,0,0,1-.019-3.755,19.514,19.514,0,0,1,1.94-1.7,1.662,1.662,0,0,0,.559-2.086c-.309-.841-.619-1.687-.844-2.553a2.256,2.256,0,0,1,1.6-3,16.071,16.071,0,0,1,2.73-.6,1.655,1.655,0,0,0,1.6-1.554,16.824,16.824,0,0,1,.626-2.838A2.294,2.294,0,0,1,94.423-2250.293Zm17.337,33.945a.791.791,0,0,0,.91-.677,15.667,15.667,0,0,0,.325-1.647c.381-2.622,1.175-3.429,3.755-3.8.48-.069.962-.142,1.434-.254.858-.2,1.067-.519.836-1.368-.186-.683-.462-1.342-.691-2.013-.672-1.978-.411-2.875,1.215-4.224.4-.334.811-.664,1.2-1.018,1.047-.958,1.051-1.19.035-2.127-.412-.38-.852-.73-1.281-1.091-1.576-1.324-1.832-2.209-1.183-4.139.2-.6.439-1.193.629-1.8.351-1.124.194-1.406-.929-1.659q-1.037-.234-2.089-.4a3.051,3.051,0,0,1-2.745-2.7c-.14-.771-.261-1.547-.434-2.312-.194-.859-.518-1.064-1.368-.834-.647.175-1.271.438-1.907.656-2.082.717-2.938.479-4.33-1.184-.408-.488-.81-.984-1.252-1.44-.715-.738-.959-.745-1.657-.03-.47.481-.891,1.009-1.325,1.524-1.323,1.571-2.215,1.829-4.139,1.18-.567-.191-1.125-.405-1.694-.59-1.253-.408-1.521-.256-1.778,1.007-.142.695-.268,1.393-.4,2.09a3.023,3.023,0,0,1-2.686,2.621c-.81.137-1.623.272-2.419.469-.741.183-.928.489-.741,1.233.163.65.427,1.274.648,1.909.765,2.2.533,3.033-1.244,4.508-.461.382-.925.763-1.352,1.181-.733.715-.744.962-.026,1.657.536.52,1.121.991,1.7,1.467a3.1,3.1,0,0,1,1.089,3.792c-.237.629-.467,1.262-.676,1.9-.41,1.255-.257,1.521,1.006,1.778.7.142,1.393.27,2.09.4a3.015,3.015,0,0,1,2.606,2.574c.073.366.139.733.209,1.1.1.514.161,1.038.3,1.539.179.626.436.777,1.093.656a9.541,9.541,0,0,0,1.175-.362c.639-.207,1.275-.425,1.918-.622a2.548,2.548,0,0,1,2.506.587,9.773,9.773,0,0,1,.924.974c.4.447.766.922,1.183,1.351.715.735.959.738,1.66.033.369-.37.7-.781,1.041-1.176.245-.282.472-.582.731-.851a2.828,2.828,0,0,1,3.157-.852c.671.23,1.34.468,2.013.693C111.116-2216.53,111.44-2216.444,111.76-2216.348Z" transform="translate(-82.754 2252.722)" fill="#2c3e50"/>
  <path id="Path_9309" data-name="Path 9309" d="M151.12-2201.157a2.817,2.817,0,0,1-.259.49,5.709,5.709,0,0,1-.542.567q-7.5,7.5-15,15.006a6.2,6.2,0,0,1-.656.611.8.8,0,0,1-1.121-.043.8.8,0,0,1-.1-1.116,4,4,0,0,1,.526-.581q7.619-7.624,15.243-15.244a3.091,3.091,0,0,1,.679-.579A.85.85,0,0,1,151.12-2201.157Z" transform="translate(-121.91 2213.513)" fill="#2c3e50"/>
  <path id="Path_9310" data-name="Path 9310" d="M137.771-2204.744a5.288,5.288,0,0,1-1.518,4.04,3.574,3.574,0,0,1-5.292-.136,5.583,5.583,0,0,1-.2-7.12,3.678,3.678,0,0,1,5.973.151A4.963,4.963,0,0,1,137.771-2204.744Zm-1.721.284a3.526,3.526,0,0,0-.887-2.5,1.892,1.892,0,0,0-2.948-.024,3.933,3.933,0,0,0,.029,4.952,1.955,1.955,0,0,0,2.962-.075A3.628,3.628,0,0,0,136.05-2204.46Z" transform="translate(-119.059 2219.146)" fill="#2c3e50"/>
  <path id="Path_9311" data-name="Path 9311" d="M184.049-2149.323a3.4,3.4,0,0,1-2.79-1.325,5.553,5.553,0,0,1,.283-7.365,3.573,3.573,0,0,1,5.36.229,5.552,5.552,0,0,1,.253,6.858A3.606,3.606,0,0,1,184.049-2149.323Zm2.362-4.727a3.319,3.319,0,0,0-.9-2.659,1.92,1.92,0,0,0-2.865.027,3.866,3.866,0,0,0-.032,4.925,1.907,1.907,0,0,0,3.082-.112A3.236,3.236,0,0,0,186.411-2154.05Z" transform="translate(-158.15 2180.145)" fill="#2c3e50"/>
</svg>
