<svg xmlns="http://www.w3.org/2000/svg" xmlns:xlink="http://www.w3.org/1999/xlink" width="32.959" height="27" viewBox="0 0 32.959 27">
  <defs>
    <linearGradient id="linear-gradient" x2="1.058" gradientUnits="objectBoundingBox">
      <stop offset="0" stop-color="#6e4a9c"/>
      <stop offset="1" stop-color="#f13d59"/>
    </linearGradient>
  </defs>
  <path id="Icon_awesome-list-ul" data-name="Icon awesome-list-ul" d="M3.09,3.375A3.115,3.115,0,1,0,6.18,6.49,3.1,3.1,0,0,0,3.09,3.375Zm0,10.385a3.115,3.115,0,1,0,3.09,3.115A3.1,3.1,0,0,0,3.09,13.76Zm0,10.385A3.115,3.115,0,1,0,6.18,27.26a3.1,3.1,0,0,0-3.09-3.115Zm28.839,1.038h-20.6a1.034,1.034,0,0,0-1.03,1.038V28.3a1.034,1.034,0,0,0,1.03,1.038h20.6a1.034,1.034,0,0,0,1.03-1.038V26.221A1.034,1.034,0,0,0,31.929,25.183Zm0-20.769h-20.6A1.034,1.034,0,0,0,10.3,5.452V7.529a1.034,1.034,0,0,0,1.03,1.038h20.6a1.034,1.034,0,0,0,1.03-1.038V5.452A1.034,1.034,0,0,0,31.929,4.413Zm0,10.385h-20.6a1.034,1.034,0,0,0-1.03,1.038v2.077a1.034,1.034,0,0,0,1.03,1.038h20.6a1.034,1.034,0,0,0,1.03-1.038V15.837A1.034,1.034,0,0,0,31.929,14.8Z" transform="translate(0 -3.375)" fill="#2c3e50"/>
</svg>
