<svg xmlns="http://www.w3.org/2000/svg" width="22.77" height="25.229" viewBox="0 0 22.77 25.229">
  <g id="Group_39102" data-name="Group 39102" transform="translate(-2515.686 400.188)">
    <path id="Path_10036" data-name="Path 10036" d="M2538.456-393.487a26.4,26.4,0,0,1-1.926,9.918,15.307,15.307,0,0,1-8.011,8.27,3.439,3.439,0,0,1-2.987,0,15.385,15.385,0,0,1-8.2-8.741,23.1,23.1,0,0,1-1.6-7.474c-.071-1.426-.043-2.859-.014-4.287.02-.986.536-1.425,1.525-1.375a13.455,13.455,0,0,0,5.87-.871,11.262,11.262,0,0,0,2.8-1.669,1.306,1.306,0,0,1,2,0,11.92,11.92,0,0,0,7.1,2.549c.619.032,1.242,0,1.863-.013a1.258,1.258,0,0,1,1.46,1.332C2538.388-395.066,2538.417-394.276,2538.456-393.487Zm-2.379.4c0-.4.006-.791,0-1.186-.01-.525-.015-.528-.543-.541a14.889,14.889,0,0,1-8.305-2.512.5.5,0,0,0-.651.016,23.135,23.135,0,0,1-2.2,1.25,14.343,14.343,0,0,1-5.752,1.244c-.63.019-.637.015-.641.667,0,.546-.006,1.093.019,1.638a22.675,22.675,0,0,0,1.655,7.912,13.045,13.045,0,0,0,6.8,7.139,1.291,1.291,0,0,0,1.172,0,12.9,12.9,0,0,0,6.338-6.178A22.227,22.227,0,0,0,2536.076-393.082Z" fill="#2c3e50"/>
    <path id="Path_10037" data-name="Path 10037" d="M2539.261-367.4c0-.414.017-.829-.005-1.241-.02-.362.105-.483.481-.487a13.584,13.584,0,0,0,5.17-1.027,24.93,24.93,0,0,0,2.587-1.366.512.512,0,0,1,.643-.008,14.921,14.921,0,0,0,7.994,2.406c.3.008.489.033.487.419a23.408,23.408,0,0,1-1.818,9.63,12.6,12.6,0,0,1-6.332,6.541,1.146,1.146,0,0,1-1.062.006,12.83,12.83,0,0,1-6.58-7.111,21.726,21.726,0,0,1-1.486-6.748c-.024-.338-.039-.676-.058-1.014Zm7.366,6.772h0c0,.452-.029.906.01,1.354a2.038,2.038,0,0,0,.242.847,1.216,1.216,0,0,0,1.383.507,1.229,1.229,0,0,0,.958-1.182c.032-.845.03-1.693.011-2.539a1.356,1.356,0,0,1,.413-1.091,2.275,2.275,0,0,0-.06-3.163,2.323,2.323,0,0,0-3.215-.078,2.222,2.222,0,0,0-.214,3.145,1.694,1.694,0,0,1,.472,1.411C2546.613-361.158,2546.626-360.894,2546.626-360.631Z" transform="translate(-20.904 -25.321)" fill="#2c3e50"/>
  </g>
</svg>
