<svg xmlns="http://www.w3.org/2000/svg" width="22.222" height="27" viewBox="0 0 22.222 27">
  <g id="Group_39097" data-name="Group 39097" transform="translate(2067.95 4151.854)">
    <path id="Path_9335" data-name="Path 9335" d="M-2057.694-4025.755a15.889,15.889,0,0,1-9.928-4.061.741.741,0,0,1-.222-1.013,11.833,11.833,0,0,1,11.008-7.457,11.859,11.859,0,0,1,11.024,7.531.687.687,0,0,1-.225.911A16.992,16.992,0,0,1-2057.694-4025.755Z" transform="translate(0 -99.097)" fill="#2c3e50"/>
    <path id="Path_9336" data-name="Path 9336" d="M-2026.675-4138.48a6.679,6.679,0,0,1-6.648-6.706,6.707,6.707,0,0,1,6.705-6.667,6.715,6.715,0,0,1,6.682,6.692A6.679,6.679,0,0,1-2026.675-4138.48Z" transform="translate(-30.215)" fill="#2c3e50"/>
  </g>
</svg>
