<svg xmlns="http://www.w3.org/2000/svg" width="27.125" height="27.125" viewBox="0 0 27.125 27.125">
  <path id="qr" d="M27.125,16.687v3.02a1.059,1.059,0,0,1-1.06,1.06H23.1a1.06,1.06,0,1,1,0-2.119h1.907v-1.96a1.06,1.06,0,1,1,2.119,0ZM12.5,11.5a1.059,1.059,0,0,0,1.06-1.06V8.052h1.06a1.059,1.059,0,0,0,1.06-1.06V1.058A1.06,1.06,0,0,0,14.583,0a1.076,1.076,0,0,0-1.021,1.084v.822H12.5a1.06,1.06,0,1,0,0,2.119h1.06V5.932H12.5a1.059,1.059,0,0,0-1.06,1.06v3.444A1.059,1.059,0,0,0,12.5,11.5ZM1.06,15.627a1.059,1.059,0,0,0,1.06-1.06v-1.06H3.232a1.06,1.06,0,0,0,0-2.119H1.06A1.059,1.059,0,0,0,0,12.449v2.119A1.059,1.059,0,0,0,1.06,15.627Zm15.682-2.119H19.6v3.153a1.076,1.076,0,0,0,1.021,1.084,1.06,1.06,0,0,0,1.1-1.059v-1.06h1.113a1.06,1.06,0,1,0,0-2.119H21.721v-1.06a1.059,1.059,0,0,0-1.06-1.06h-3.92a1.06,1.06,0,0,0,0,2.119Zm9.324-2.119a1.06,1.06,0,1,0,1.06,1.06A1.059,1.059,0,0,0,26.065,11.389Zm-9.324,4.238a1.059,1.059,0,0,0-1.06,1.06v1.96h-.53a1.06,1.06,0,1,0,0,2.119h1.589a1.059,1.059,0,0,0,1.06-1.06v-3.02A1.059,1.059,0,0,0,16.741,15.627Zm0,9.377h-1.06v-1.06a1.059,1.059,0,0,0-1.06-1.06h-1.06v-1.06a1.06,1.06,0,1,0-2.119,0v2.119A1.059,1.059,0,0,0,12.5,25h1.06v1.06a1.059,1.059,0,0,0,1.06,1.06h2.119a1.06,1.06,0,1,0,0-2.119Zm4.238-2.119a1.059,1.059,0,0,0-1.06-1.06h-.53a1.06,1.06,0,1,0,0,2.119h.53A1.059,1.059,0,0,0,20.979,22.885ZM26.065,25h-.848v-1.06a1.06,1.06,0,1,0-2.119,0V25H20.979a1.06,1.06,0,1,0,0,2.119h5.086a1.06,1.06,0,1,0,0-2.119ZM12.5,17.588a1.059,1.059,0,0,0,1.06-1.06v-1.96a1.059,1.059,0,0,0-1.06-1.06H8.688V12.474A1.076,1.076,0,0,0,7.668,11.39a1.06,1.06,0,0,0-1.1,1.059v1.06h-.53a1.06,1.06,0,0,0,0,2.119h5.4v.9A1.059,1.059,0,0,0,12.5,17.588ZM0,6.356V3.178A3.182,3.182,0,0,1,3.179,0H6.357A3.182,3.182,0,0,1,9.536,3.178V6.356A3.182,3.182,0,0,1,6.357,9.535H3.179A3.182,3.182,0,0,1,0,6.356Zm2.119,0a1.061,1.061,0,0,0,1.06,1.06H6.357a1.061,1.061,0,0,0,1.06-1.06V3.178a1.061,1.061,0,0,0-1.06-1.06H3.179a1.061,1.061,0,0,0-1.06,1.06Zm2.649-.53a1.06,1.06,0,1,0-1.06-1.06A1.059,1.059,0,0,0,4.768,5.827ZM27.125,3.178V6.356a3.182,3.182,0,0,1-3.179,3.179H20.767a3.182,3.182,0,0,1-3.179-3.179V3.178A3.182,3.182,0,0,1,20.767,0h3.179A3.182,3.182,0,0,1,27.125,3.178Zm-2.119,0a1.061,1.061,0,0,0-1.06-1.06H20.767a1.061,1.061,0,0,0-1.06,1.06V6.356a1.061,1.061,0,0,0,1.06,1.06h3.179a1.061,1.061,0,0,0,1.06-1.06Zm-2.649.53a1.06,1.06,0,1,0,1.06,1.06A1.059,1.059,0,0,0,22.357,3.707ZM9.536,20.766v3.179a3.182,3.182,0,0,1-3.179,3.179H3.179A3.182,3.182,0,0,1,0,23.945V20.766a3.182,3.182,0,0,1,3.179-3.179H6.357A3.182,3.182,0,0,1,9.536,20.766Zm-2.119,0a1.061,1.061,0,0,0-1.06-1.06H3.179a1.061,1.061,0,0,0-1.06,1.06v3.179A1.061,1.061,0,0,0,3.179,25H6.357a1.061,1.061,0,0,0,1.06-1.06Zm-2.649.53a1.06,1.06,0,1,0,1.06,1.06A1.059,1.059,0,0,0,4.768,21.3Zm0,0" transform="translate(0 0.001)" fill="#ababab"/>
</svg>
