<svg id="Group_38790" data-name="Group 38790" xmlns="http://www.w3.org/2000/svg" width="36.528" height="40.582" viewBox="0 0 36.528 40.582">
  <g id="Group_38788" data-name="Group 38788" transform="translate(16.762 11.547)">
    <path id="Path_9306" data-name="Path 9306" d="M400.63-2204.787a1.491,1.491,0,0,1-1.032-.412l-6.194-5.877v-12.383a1.5,1.5,0,0,1,1.5-1.5,1.5,1.5,0,0,1,1.5,1.5v11.094l5.258,4.99a1.5,1.5,0,0,1,.056,2.121A1.5,1.5,0,0,1,400.63-2204.787Z" transform="translate(-393.404 2224.959)" fill="#2c3e50"/>
  </g>
  <g id="Group_38789" data-name="Group 38789">
    <path id="Path_9307" data-name="Path 9307" d="M413.17-2214.874a18.97,18.97,0,0,1-18.95,18.95,18.92,18.92,0,0,1-17.46-11.57,1.5,1.5,0,0,1,.8-1.97,1.5,1.5,0,0,1,1.96.8,15.93,15.93,0,0,0,14.7,9.74,15.974,15.974,0,0,0,15.95-15.95,15.974,15.974,0,0,0-15.95-15.95,15.857,15.857,0,0,0-7.32,1.78l2.75.5a1.514,1.514,0,0,1,1.21,1.75,1.517,1.517,0,0,1-1.48,1.23,2.45,2.45,0,0,1-.27-.02l-7.65-1.41,1.77-8.32a1.505,1.505,0,0,1,1.78-1.16,1.505,1.505,0,0,1,1.16,1.78l-.63,2.98a18.891,18.891,0,0,1,8.68-2.11A18.97,18.97,0,0,1,413.17-2214.874Z" transform="translate(-376.642 2236.506)" fill="#2c3e50"/>
  </g>
</svg>
