<svg xmlns="http://www.w3.org/2000/svg" width="17.87" height="25.389" viewBox="0 0 17.87 25.389">
  <g id="Group_39095" data-name="Group 39095" transform="translate(-1322.502 561.575)">
    <path id="Path_10032" data-name="Path 10032" d="M1331.354-561.574a8.976,8.976,0,0,1,8.932,7.568,7.978,7.978,0,0,1-.472,4.046,32.968,32.968,0,0,1-2.593,5.289,88.99,88.99,0,0,1-5.521,8.222c-.259.347-.261.347-.509.016a85.237,85.237,0,0,1-6.048-9.14,28.676,28.676,0,0,1-2.054-4.334,8.327,8.327,0,0,1-.578-3.327,8.993,8.993,0,0,1,6.292-7.953A8.6,8.6,0,0,1,1331.354-561.574Zm.108,4.617a4.3,4.3,0,0,0-4.338,4.274,4.324,4.324,0,0,0,4.26,4.362,4.329,4.329,0,0,0,4.377-4.283A4.307,4.307,0,0,0,1331.461-556.957Z" transform="translate(0 0)" fill="#2c3e50"/>
  </g>
</svg>
