<svg xmlns="http://www.w3.org/2000/svg" width="22.459" height="26.112" viewBox="0 0 22.459 26.112">
  <g id="Group_39101" data-name="Group 39101" transform="translate(-2360.229 566.843)">
    <path id="Path_10035" data-name="Path 10035" d="M2377.121-551.942c0-1.194,0-2.388,0-3.582,0-.761.3-1.108,1.039-1.013a14.894,14.894,0,0,1,2.093.54,4.275,4.275,0,0,1,.531.227,3.355,3.355,0,0,0,.035-.57,9,9,0,0,0-5.938-8,9.307,9.307,0,0,0-12.691,7.665c-.021.175-.015.354-.035.529-.044.385.03.414.413.264a10.646,10.646,0,0,1,2.26-.653c.738-.111,1.042.248,1.044,1.005q.008,3.582,0,7.163c0,.84-.341,1.141-1.2,1.086a4.385,4.385,0,0,1-4.262-3.906,21.611,21.611,0,0,1,.269-7.38,11.256,11.256,0,0,1,9.479-8.2,11.147,11.147,0,0,1,12.318,9.081,22.437,22.437,0,0,1,.192,4.159,23.019,23.019,0,0,1-.4,4.729,10.886,10.886,0,0,1-9.352,7.957c-.44.042-.88.107-1.32.108-.676,0-.982-.3-1-.959-.017-.619-.009-1.238,0-1.857a.817.817,0,0,1,.917-.894c.906-.006,1.813,0,2.719,0a.819.819,0,0,1,.944.725c.044.311.13.362.417.227a8.811,8.811,0,0,0,4.057-3.673,2.493,2.493,0,0,0,.137-.364c-.143.017-.287.027-.428.051-.391.065-.779.17-1.172.2-.731.048-1.062-.276-1.067-1.012C2377.115-549.51,2377.121-550.726,2377.121-551.942Z" transform="translate(0 0)" fill="#2c3e50"/>
  </g>
</svg>
