<svg xmlns="http://www.w3.org/2000/svg" width="26.051" height="19.235" viewBox="0 0 26.051 19.235">
  <g id="Group_39104" data-name="Group 39104" transform="translate(-1977.188 1331.8)">
    <path id="Path_10038" data-name="Path 10038" d="M1987.171-1312.567c-2.125,0-4.249.007-6.374,0a3.692,3.692,0,0,1-3.607-3.468c-.025-.6.188-.838.776-.838q6.176-.005,12.352,0c.542,0,.7.152.759.692a2.459,2.459,0,0,0,2.389,2.345,2.391,2.391,0,0,0,2.431-2.354c.019-1.161.008-2.323.008-3.484q0-4.117,0-8.234a3.878,3.878,0,0,1,.645-2.285,2.446,2.446,0,0,0,.144-.272,1.805,1.805,0,0,0-.33-.062q-3.86-.005-7.72,0c-.158,0-.317,0-.475-.007a.611.611,0,0,1-.6-.569.625.625,0,0,1,.539-.672,1.834,1.834,0,0,1,.315-.017q5.523,0,11.045,0a3.635,3.635,0,0,1,3.52,2.349,4.45,4.45,0,0,1,.249,1.232.626.626,0,0,1-.648.735,6.56,6.56,0,0,1-.672.014l-4.276,0c-.477,0-.477,0-.477.477q0,5.324.005,10.649a3.643,3.643,0,0,1-1.157,2.762,3.545,3.545,0,0,1-2.506,1.011C1991.393-1312.559,1989.282-1312.567,1987.171-1312.567Z" fill="#2c3e50"/>
    <path id="Path_10039" data-name="Path 10039" d="M2028.328-1328.42a2.54,2.54,0,0,1,2.544-2.539,2.548,2.548,0,0,1,2.57,2.559,2.546,2.546,0,0,1-2.567,2.563A2.553,2.553,0,0,1,2028.328-1328.42Z" transform="translate(-47.09 -0.774)" fill="#2c3e50"/>
    <path id="Path_10040" data-name="Path 10040" d="M2040.78-1252.729c0,1,0,2,0,3.007a1.591,1.591,0,0,1-.044.264,1.156,1.156,0,0,1-.254-.148c-.43-.428-.85-.865-1.278-1.3-.289-.29-.293-.288-.591.008-.374.372-.742.75-1.12,1.118-.118.115-.257.21-.386.314a3.7,3.7,0,0,1-.065-.486c-.006-1.161,0-2.321,0-3.482,0-.765,0-1.53,0-2.295,0-.355.01-.361.32-.225a3.719,3.719,0,0,0,3.105,0c.312-.135.316-.131.317.217Q2040.781-1254.233,2040.78-1252.729Z" transform="translate(-55.109 -69.764)" fill="#2c3e50"/>
    <path id="Path_10041" data-name="Path 10041" d="M2111.413-1277.744c-.884,0-1.768,0-2.652,0a1.254,1.254,0,0,1-.351-.041.473.473,0,0,1-.375-.494.486.486,0,0,1,.38-.494,1.979,1.979,0,0,1,.51-.052q2.572-.005,5.145,0a1.49,1.49,0,0,1,.353.035.552.552,0,0,1,.423.51.547.547,0,0,1-.427.508,1.558,1.558,0,0,1-.354.026q-1.326,0-2.652,0Z" transform="translate(-120.487 -48.776)" fill="#2c3e50"/>
    <path id="Path_10042" data-name="Path 10042" d="M2111.429-1250.886q-1.305,0-2.61,0a2.089,2.089,0,0,1-.354-.017.466.466,0,0,1-.417-.455.485.485,0,0,1,.343-.519,1.369,1.369,0,0,1,.428-.051q2.649-.005,5.3,0c.04,0,.079,0,.118,0,.37.022.617.234.621.532s-.225.505-.621.508c-.936.006-1.871,0-2.807,0Z" transform="translate(-120.498 -73.544)" fill="#2c3e50"/>
    <path id="Path_10043" data-name="Path 10043" d="M2111.42-1224.009c-.936,0-1.872,0-2.808,0-.342,0-.517-.118-.591-.356a.488.488,0,0,1,.344-.651,1.16,1.16,0,0,1,.313-.034q2.689,0,5.378,0a1.734,1.734,0,0,1,.276.013.545.545,0,0,1,.472.507.526.526,0,0,1-.5.516c-.236.018-.474,0-.712,0Z" transform="translate(-120.447 -98.295)" fill="#2c3e50"/>
  </g>
</svg>
