<svg xmlns="http://www.w3.org/2000/svg" width="19.817" height="21.275" viewBox="0 0 19.817 21.275">
  <g id="Group_39099" data-name="Group 39099" transform="translate(-2151.533 486.009)">
    <path id="Path_10033" data-name="Path 10033" d="M2161.443-464.736c-2.671,0-5.342,0-8.012,0-1.465,0-1.9-.446-1.9-1.921q0-6.74,0-13.48c0-1.236.243-1.686,1.319-1.972,4.843-1.287,9.688-2.564,14.552-3.771,1.661-.412,2.264.168,2.266,1.865,0,.691.015,1.383,0,2.074-.021.74-.114,1.417.938,1.641.322.068.7.829.706,1.278.053,4.241.042,8.483.025,12.725,0,1.062-.551,1.552-1.693,1.559C2166.91-464.726,2164.177-464.736,2161.443-464.736Zm-.961-15.807c2.575,0,5.149-.012,7.724.01.512,0,.727-.12.7-.674-.041-.94-.009-1.883-.012-2.825,0-1.152-.216-1.376-1.346-1.091-4.8,1.211-9.581,2.465-14.37,3.707a.927.927,0,0,0-.431.173,3.722,3.722,0,0,0-.39.595,3.418,3.418,0,0,0,.586.1Q2156.714-480.537,2160.481-480.543Zm5.719,7.845a2.175,2.175,0,0,0,2.071,2.131,2.149,2.149,0,0,0,2.147-2.141,2.146,2.146,0,0,0-2.159-2.132A2.164,2.164,0,0,0,2166.2-472.7Z" transform="translate(0 0)" fill="#2c3e50"/>
    <path id="Path_10034" data-name="Path 10034" d="M2236.381-420.8a1.156,1.156,0,0,1-1.17,1.191,1.227,1.227,0,0,1-1.238-1.246,1.257,1.257,0,0,1,1.2-1.208A1.2,1.2,0,0,1,2236.381-420.8Z" transform="translate(-66.881 -51.876)" fill="#2c3e50"/>
  </g>
</svg>
